<svg width="28" height="29" fill="none" xmlns="http://www.w3.org/2000/svg"><path d="M21.787 28.844l-15.547.014c-3.42.003-6.221-2.792-6.225-6.212L0 7.098C-.003 3.678 2.792.878 6.213.873L21.76.858c3.42-.003 6.221 2.793 6.225 6.213L28 22.618c.004 3.422-2.792 6.223-6.213 6.226z" fill="url(#paint0_radial)"/><path d="M21.787 28.844l-15.547.014c-3.42.003-6.221-2.792-6.225-6.212L0 7.098C-.003 3.678 2.792.878 6.213.873L21.76.858c3.42-.003 6.221 2.793 6.225 6.213L28 22.618c.004 3.422-2.792 6.223-6.213 6.226z" fill="url(#paint1_radial)"/><path d="M14 20.3c-3 0-5.441-2.441-5.441-5.442 0-3 2.441-5.441 5.441-5.441s5.442 2.44 5.442 5.441S17 20.3 14 20.3zm0-9.329a3.891 3.891 0 00-3.887 3.887A3.891 3.891 0 0014 18.745a3.891 3.891 0 003.887-3.887A3.891 3.891 0 0014 10.972zm5.832-.777a1.166 1.166 0 100-2.332 1.166 1.166 0 000 2.332z" fill="#fff"/><path d="M18.665 24.965h-9.33c-3 0-5.441-2.441-5.441-5.442v-9.328c0-3 2.441-5.442 5.441-5.442h9.329c3 0 5.441 2.441 5.441 5.442v9.328c0 3-2.442 5.442-5.442 5.442zM9.335 6.308a3.891 3.891 0 00-3.887 3.887v9.328a3.891 3.891 0 003.887 3.887h9.329a3.891 3.891 0 003.886-3.887v-9.328a3.891 3.891 0 00-3.886-3.887H9.335z" fill="#fff"/><defs><radialGradient id="paint0_radial" cx="0" cy="0" r="1" gradientUnits="userSpaceOnUse" gradientTransform="translate(10.409 28.879) scale(34.903)"><stop stop-color="#FD5"/><stop offset=".328" stop-color="#FF543F"/><stop offset=".348" stop-color="#FC5245"/><stop offset=".504" stop-color="#E64771"/><stop offset=".643" stop-color="#D53E91"/><stop offset=".761" stop-color="#CC39A4"/><stop offset=".841" stop-color="#C837AB"/></radialGradient><radialGradient id="paint1_radial" cx="0" cy="0" r="1" gradientUnits="userSpaceOnUse" gradientTransform="matrix(23.1757 0 0 15.4419 4.506 .509)"><stop stop-color="#4168C9"/><stop offset=".999" stop-color="#4168C9" stop-opacity="0"/></radialGradient></defs></svg>