<svg width="84" height="25" fill="none" xmlns="http://www.w3.org/2000/svg"><path d="M8.307 10.698l2.402-1.49 2.402 1.49-2.402 1.498-2.402-1.498zm0 1.952v10.272l2.402 1.323 2.402-1.323V12.649l-2.402 1.452-2.402-1.452z" fill="#fff"/><path d="M17.09 3.449l-6.38 3.634-6.305-3.677L0 5.786v12.49l6.707 3.896v-5.263l-2.195-1.263V8.355l2.25 1.28 3.947-2.314 3.948 2.315 2.25-1.281v7.291l-2.19 1.263v5.263l6.702-3.896V5.786L17.09 3.45zm12.85 13.039h-1.795V6.134h1.796l-.002 10.354zm4.548-10.354l3.624 5.116 3.539-5.116h1.967v10.361h-1.813V8.89h-.068l-3.368 4.818h-.664L34.3 8.89h-.068v7.598h-1.728V6.134h1.985zm11.694 0h7.967v1.692h-6.114v2.4h5.471v1.673h-5.478v2.918h6.36v1.675h-8.21l.004-10.358zm14.875 0a5.205 5.205 0 012.084.394c.66.273 1.26.68 1.76 1.194a5.173 5.173 0 011.35 3.591 5.253 5.253 0 01-.379 2.048 5.21 5.21 0 01-1.143 1.735 5.298 5.298 0 01-3.668 1.399h-4.278V6.134h4.274zM58.58 7.808v7.028h2.41a3.465 3.465 0 002.514-.966c.615-.639.94-1.503.94-2.556 0-1.054-.325-1.9-.924-2.521a3.474 3.474 0 00-2.531-.985h-2.41zm11.779 8.68h-1.796V6.134h1.796v10.354zM79.01 6.134l4.542 10.361h-1.96l-.856-1.9H75.26l-.838 1.9h-1.925l4.541-10.36h1.972zm-3.051 6.78h4.085l-1.966-4.92h-.198l-1.921 4.92zm-47.285 6.482c.296-.191.643-.284.993-.265.44 0 .875.109 1.264.318l-.213.446a2.295 2.295 0 00-1.023-.254c-.23-.02-.46.028-.662.138a.318.318 0 00-.142.27.226.226 0 00.12.195.842.842 0 00.35.117l.641.116c.312.037.608.164.85.365a.783.783 0 01.22.582.85.85 0 01-.36.727c-.342.197-.732.29-1.124.27a2.701 2.701 0 01-1.286-.285l.175-.466c.349.15.723.228 1.102.233.372 0 .626-.043.814-.177a.352.352 0 00.126-.28.34.34 0 00-.126-.265 1.182 1.182 0 00-.463-.164l-.698-.122a1.218 1.218 0 01-.688-.301.842.842 0 01.136-1.198h-.006zm9.127.2c.304.316.472.741.467 1.182a1.65 1.65 0 01-.446 1.155 1.66 1.66 0 01-1.212.492 1.669 1.669 0 01-1.223-.529 1.685 1.685 0 01-.435-1.118 1.66 1.66 0 01.44-1.14 1.738 1.738 0 012.414-.042h-.005zm-1.995 1.972a1.072 1.072 0 00.804.353 1.082 1.082 0 00.803-.353 1.22 1.22 0 000-1.588 1.119 1.119 0 00-.798-.338 1.087 1.087 0 00-.803.352 1.196 1.196 0 000 1.588l-.005-.014zm8.963.796h-2.445V19.19h.562v2.676h1.89l-.007.5zm6.194-.314a1.429 1.429 0 01-1.942-.021 1.394 1.394 0 01-.399-.997V19.19h.566v1.875a.833.833 0 00.236.595.776.776 0 00.584.248.8.8 0 00.581-.248.814.814 0 00.227-.595V19.19h.566v1.843a1.4 1.4 0 01-.42 1.018zm4.43-2.861h2.89v.508h-1.17v2.667h-.543v-2.667H55.4l-.007-.508zm7.465 3.175h-.551V19.19h.551v3.175zm6.886-2.768c.303.316.471.741.466 1.182a1.65 1.65 0 01-.445 1.155 1.66 1.66 0 01-1.213.492 1.669 1.669 0 01-1.222-.529 1.685 1.685 0 01-.435-1.118 1.66 1.66 0 01.44-1.14 1.738 1.738 0 012.414-.042h-.005zm-1.995 1.972a1.074 1.074 0 00.803.353 1.082 1.082 0 00.804-.353 1.22 1.22 0 000-1.588 1.12 1.12 0 00-.798-.338 1.087 1.087 0 00-.804.352 1.196 1.196 0 000 1.588l-.005-.014zm9.432-2.379v3.175h-.523l-1.854-2.284v2.284h-.552V19.19h.524l1.864 2.293V19.19h.541zm4.416.207c.296-.191.643-.284.993-.265.44 0 .875.109 1.264.318l-.21.446a2.295 2.295 0 00-1.023-.254c-.23-.02-.46.028-.662.138a.318.318 0 00-.142.27.227.227 0 00.121.195.842.842 0 00.35.117l.64.116c.313.037.608.164.851.365a.783.783 0 01.22.582.85.85 0 01-.361.727c-.341.197-.731.29-1.124.27a2.701 2.701 0 01-1.285-.285l.175-.466c.348.15.723.228 1.102.233.372 0 .625-.043.814-.177a.352.352 0 00.126-.28.34.34 0 00-.126-.265 1.182 1.182 0 00-.463-.164l-.699-.122a1.217 1.217 0 01-.697-.294.842.842 0 01.136-1.198v-.007z" fill="#fff"/><path d="M0 5.787l4.512 2.568v7.292L0 18.277V5.787zm0 12.49l4.512-2.63 2.195 1.262v5.263L0 18.277zm16.907-9.922l4.512-2.568v12.49l-4.512-2.63V8.355z" fill="#fff"/><path d="M14.716 16.91l2.19-1.264 4.513 2.63-6.703 3.896v-5.263zm-1.606-4.26l-2.4 1.451v10.144l2.4-1.323V12.649zM6.138 2.472L10.71 0l4.59 2.48-4.59 2.655-4.57-2.663z" fill="#fff"/></svg>