<svg width="36" height="36" fill="none" xmlns="http://www.w3.org/2000/svg"><path d="M8.364 26.422c1.089 1.083 2.553 1.495 3.92 2.116H7.719l-.032.066.934.83-3.045-.924c.078-.177.143-.339.22-.496 1.441-2.95 3.226-5.684 5.315-8.228 2.255-2.748 4.702-5.312 7.451-7.588 3.95-3.268 8.413-5.591 13.362-7.012.87-.25 1.745-.479 2.618-.756-.072 0-.145.002-.218 0-2.65-.086-5.105.682-7.505 1.68-3.42 1.424-6.502 3.388-9.332 5.744-6.038 5.028-10.618 11.13-13.828 18.24-.796 1.765-1.454 3.58-2.037 5.422-.065.208-.154.322-.392.34-.32.022-.637.092-.956.133-.277.035-.319 0-.233-.272.256-.81.49-1.63.806-2.418.643-1.6 1.331-3.183 2.008-4.77.068-.157.082-.278-.02-.427-.589-.864-1.17-1.733-1.754-2.6-.05-.074-.1-.147-.149-.222-.01-.017-.01-.04-.027-.114.594.07 1.166.14 1.769.212l-.565-2.022c.016-.015.033-.03.049-.047l.989.422c-.406-2.638.304-4.95 1.787-7.067a9.183 9.183 0 011.659-1.832c-.584 2.618-1.263 5.218-1.06 7.933.093-.619.187-1.237.278-1.856.397-2.68 1.106-5.257 2.457-7.645 1.5-2.651 3.519-4.812 6.129-6.42.632-.39 1.332-.673 2.003-1.002.085-.041.182-.06.323-.106-.033.15-.048.263-.082.369-.27.822-.583 1.633-.805 2.468-.257.97-.436 1.96-.647 2.942a.266.266 0 00.031.17c.039-.073.082-.145.116-.22.794-1.705 1.577-3.416 2.385-5.115.452-.95.936-1.888 1.63-2.697.756-.882 1.698-1.552 2.718-2.087 1.077-.564 2.21-1.027 3.317-1.534.024-.01.053-.013.13-.032l-2.05 3.893.062.043c.093-.104.188-.206.278-.313.44-.523.888-1.041 1.318-1.573.822-1.018 1.91-1.512 3.198-1.702 1.413-.208 2.748.037 4.056.52.539.2 1.075.42 1.578.694 1.228.666 1.876 1.71 2.012 3.089a6.875 6.875 0 01-.46 3.216c-.28.721-.796 1.278-1.28 1.862-1.409 1.7-3.149 2.947-5.239 3.698-1.735.625-3.535.896-5.385.879-1.32-.012-2.64.013-3.96.023-.087.001-.174.013-.261.02l-.016.056c.073.035.144.077.22.104 1.183.419 2.4.635 3.658.63 2.272-.011 4.521-.221 6.744-.696a.564.564 0 01.29.006c-.1.091-.193.191-.3.273-.651.5-1.299 1.002-1.96 1.488-1.316.967-2.655 1.904-3.957 2.89a16.21 16.21 0 01-4.348 2.376c-.451.16-.89.351-1.335.53-.065.026-.127.06-.254.122 1.097.333 2.174.4 3.239.613-1.258.877-2.644 1.482-4.053 2.037a23.144 23.144 0 01-4.38 1.237c-1.501.271-3.023.253-4.542.292a3.057 3.057 0 00-.024.115z" fill="#D8C49F"/></svg>