<svg width="36" height="41" fill="none" xmlns="http://www.w3.org/2000/svg"><path d="M18 0c4.774 0 9.352 1.851 12.728 5.147C34.104 8.442 36 12.91 36 17.57c0 7.275-5.68 14.897-16.8 23.038a2.032 2.032 0 01-2.4 0C5.68 32.47 0 24.846 0 17.571c0-4.66 1.896-9.13 5.272-12.424C8.648 1.85 13.226 0 18 0zm0 3.905c-3.713 0-7.274 1.44-9.9 4.003C5.476 10.47 4 13.947 4 17.57c0 5.291 4.236 11.394 12.896 18.17l1.104.85 1.104-.85C27.764 28.964 32 22.861 32 17.57c0-3.624-1.475-7.1-4.1-9.663-2.626-2.563-6.187-4.003-9.9-4.003zm0 9.762a4.05 4.05 0 012.828 1.143A3.858 3.858 0 0122 17.571a3.858 3.858 0 01-1.172 2.761A4.05 4.05 0 0118 21.476a4.05 4.05 0 01-2.828-1.143A3.858 3.858 0 0114 17.57c0-1.035.421-2.028 1.172-2.76A4.05 4.05 0 0118 13.666z" fill="#D8C49F"/></svg>