<svg width="28" height="30" fill="none" xmlns="http://www.w3.org/2000/svg"><g clip-path="url(#clip0)"><path fill="#fff" d="M5.091 4.488h17.182V24.92H5.091z"/><path d="M27.009 17.413c-.009.051-.015.103-.024.154l-.048-.292c.026.045.048.093.072.138.146-.819.22-1.65.22-2.482 0-1.848-.35-3.642-1.04-5.33a13.675 13.675 0 00-2.833-4.353 13.158 13.158 0 00-4.202-2.934 12.743 12.743 0 00-5.146-1.076c-.841 0-1.684.081-2.504.244l-.006.001c.046.026.093.048.138.074l-.278-.045.14-.029a7.623 7.623 0 00-3.67-.95c-2.091 0-4.057.843-5.536 2.375C.815 4.439 0 6.475 0 8.641c0 1.375.34 2.728.985 3.93.008-.05.014-.1.023-.15l.048.288c-.025-.045-.046-.092-.071-.138-.132.78-.198 1.569-.2 2.36 0 1.849.35 3.642 1.04 5.33a13.668 13.668 0 002.833 4.353 13.133 13.133 0 004.203 2.934 12.726 12.726 0 005.147 1.078c.777 0 1.555-.074 2.315-.213-.044-.026-.09-.05-.134-.077l.282.052c-.049.01-.098.015-.148.025a7.613 7.613 0 003.851 1.05c2.09 0 4.055-.841 5.534-2.373C27.186 25.56 28 23.523 28 21.358a8.332 8.332 0 00-.991-3.945zM14.06 23.318c-4.697 0-6.798-2.392-6.798-4.185 0-.92.655-1.563 1.559-1.563 2.01 0 1.489 2.989 5.24 2.989 1.92 0 2.98-1.08 2.98-2.185 0-.664-.317-1.401-1.581-1.724l-4.178-1.08c-3.365-.874-3.975-2.758-3.975-4.529 0-3.677 3.342-5.057 6.481-5.057 2.892 0 6.3 1.655 6.3 3.86 0 .946-.79 1.496-1.693 1.496-1.715 0-1.4-2.46-4.855-2.46-1.715 0-2.665.805-2.665 1.955 0 1.149 1.355 1.516 2.53 1.793l3.093.711c3.387.782 4.246 2.83 4.246 4.76 0 2.988-2.214 5.219-6.684 5.219zm2.129 5.018c.045.028.09.05.134.077.05-.01.1-.016.148-.025l-.282-.052zm10.796-10.77c.009-.05.015-.102.024-.153-.024-.046-.046-.093-.072-.138l.048.292zM1.008 12.423c-.009.05-.015.1-.023.149.025.046.046.093.071.138l-.048-.287zM11.636 1.557c-.045-.026-.092-.048-.138-.074l-.14.03.278.044z" fill="#00AFF0"/></g><defs><clipPath id="clip0"><path fill="#fff" transform="translate(0 .533)" d="M0 0h28v29H0z"/></clipPath></defs></svg>